<?xml version="1.0" encoding="UTF-8" standalone="no"?>
<svg width="14px" height="14px" viewBox="0 0 14 14" version="1.1" xmlns="http://www.w3.org/2000/svg" xmlns:xlink="http://www.w3.org/1999/xlink">
    <!-- Generator: sketchtool 49 (51002) - http://www.bohemiancoding.com/sketch -->
    <title>4F56AF3D-BB19-4931-8FC3-E27E936DE091</title>
    <desc>Created with sketchtool.</desc>
    <defs></defs>
    <g id="chat" stroke="none" stroke-width="1" fill="none" fill-rule="evenodd">
        <g transform="translate(-371.000000, -607.000000)" fill="#fff" fill-rule="nonzero" id="Chat">
            <g transform="translate(26.000000, 599.000000)">
                <path d="M353.663879,15.0000246 L358.655394,10.0085101 C359.114869,9.54903519 359.114869,8.80408109 358.655394,8.34467192 C358.195919,7.88519701 357.451031,7.88519701 356.991556,8.34467192 L351.999975,13.3362522 L347.008395,8.34460618 C346.54892,7.88513127 345.804032,7.88513127 345.344557,8.34460618 C344.885148,8.80408109 344.885148,9.54903519 345.344557,10.0084444 L350.336137,14.9999589 L345.344557,19.9915392 C344.885148,20.4510141 344.885148,21.1959682 345.344557,21.6553774 C345.804032,22.1148523 346.54892,22.1148523 347.008395,21.6553774 L351.999975,16.6637971 L356.991556,21.6553774 C357.450965,22.1148523 358.195919,22.1148523 358.655394,21.6553774 C359.114869,21.1959025 359.114869,20.4510141 358.655394,19.9915392 L353.663879,15.0000246 Z" id="chat-x"></path>
            </g>
        </g>
    </g>
</svg>